<?xml version="1.0" encoding="UTF-8" standalone="no"?>
<!-- Created with Inkscape (http://www.inkscape.org/) -->

<svg
   xmlns:dc="http://purl.org/dc/elements/1.1/"
   xmlns:cc="http://creativecommons.org/ns#"
   xmlns:rdf="http://www.w3.org/1999/02/22-rdf-syntax-ns#"
   xmlns:svg="http://www.w3.org/2000/svg"
   xmlns="http://www.w3.org/2000/svg"
   xmlns:sodipodi="http://sodipodi.sourceforge.net/DTD/sodipodi-0.dtd"
   xmlns:inkscape="http://www.inkscape.org/namespaces/inkscape"
   width="23.281612mm"
   height="23.308149mm"
   viewBox="0 0 23.281612 23.308149"
   version="1.1"
   id="svg8"
   inkscape:version="0.92.4 (5da689c313, 2019-01-14)"
   sodipodi:docname="MiMeMo_icon.svg">
  <defs
     id="defs2" />
  <sodipodi:namedview
     id="base"
     pagecolor="#ffffff"
     bordercolor="#666666"
     borderopacity="1.0"
     inkscape:pageopacity="0.0"
     inkscape:pageshadow="2"
     inkscape:zoom="4.28"
     inkscape:cx="22.685692"
     inkscape:cy="23.346921"
     inkscape:document-units="mm"
     inkscape:current-layer="layer1"
     showgrid="false"
     inkscape:window-width="2736"
     inkscape:window-height="1699"
     inkscape:window-x="3827"
     inkscape:window-y="-13"
     inkscape:window-maximized="1" />
  <metadata
     id="metadata5">
    <rdf:RDF>
      <cc:Work
         rdf:about="">
        <dc:format>image/svg+xml</dc:format>
        <dc:type
           rdf:resource="http://purl.org/dc/dcmitype/StillImage" />
        <dc:title></dc:title>
      </cc:Work>
    </rdf:RDF>
  </metadata>
  <g
     inkscape:label="Layer 1"
     inkscape:groupmode="layer"
     id="layer1"
     transform="translate(-36.008695,-247.37336)">
    <path
       id="path826"
       d="m 58.284887,247.37336 -2.513542,2.01083 -0.740833,1.40229 0.02646,0.0265 -8.995835,8.99583 -1.084792,-1.11125 -0.767291,0.7673 c 0.291041,0.29104 0.291041,0.74083 0,1.00541 -0.291042,0.29104 -0.740834,0.29104 -1.005417,0 l -6.82625,6.79979 0.02646,0.0265 c -0.608542,0.84667 -0.502708,2.01084 0.238125,2.75167 0.740833,0.74083 1.905,0.84667 2.751667,0.23813 l 0.02646,0.0265 0.264583,-0.26459 6.535208,-6.53521 c -0.291042,-0.29104 -0.291042,-0.74083 0,-1.00541 0.291042,-0.29104 0.740833,-0.29104 1.005417,0 l 0.740833,-0.74084 -1.11125,-1.1377 8.995833,-8.99584 0.02646,0.0265 1.402291,-0.74083 2.010834,-2.54 z"
       inkscape:connector-curvature="0"
       style="fill:#ffcc33;fill-opacity:0.99420292;stroke-width:0.26458332" />
    <path
       id="path836"
       d="m 48.98077,253.13783 -0.590238,-0.29822 0.459074,-0.10324 c 0.144281,-0.0344 0.222978,-0.16059 0.183629,-0.27529 -0.03934,-0.11469 -0.183629,-0.19498 -0.314793,-0.16058 l -0.970613,0.2294 -0.380375,-0.19499 1.180475,-0.27528 c 0.14428,-0.0344 0.222979,-0.16058 0.183629,-0.27528 -0.03934,-0.1147 -0.183629,-0.19499 -0.314793,-0.16058 l -1.692014,0.38999 -0.498423,-0.25235 c 0.02624,-0.0803 0.03935,-0.16057 0.03935,-0.24087 0,-0.0803 -0.01311,-0.17204 -0.03935,-0.24087 l 0.498423,-0.25234 1.692014,0.38998 c 0.02624,0 0.03935,0.0115 0.06558,0.0115 0.118047,0 0.222978,-0.0688 0.249211,-0.17205 0.03935,-0.12617 -0.03934,-0.25234 -0.183629,-0.27527 l -1.180475,-0.27529 0.380375,-0.19499 0.970613,0.22939 c 0.02623,0 0.03934,0.0115 0.06558,0.0115 0.118048,0 0.222978,-0.0689 0.249211,-0.17204 0.03935,-0.12617 -0.03934,-0.25234 -0.18363,-0.27529 l -0.459073,-0.10325 0.590238,-0.29823 c 0.131163,-0.0689 0.170513,-0.20646 0.09181,-0.30968 -0.0787,-0.1147 -0.236094,-0.14912 -0.354142,-0.0803 l -0.590238,0.29822 0.118047,-0.40146 c 0.03934,-0.12617 -0.03935,-0.25234 -0.183629,-0.27528 -0.14428,-0.0344 -0.288561,0.0344 -0.314793,0.16058 l -0.262328,0.84879 -0.380375,0.19499 0.314793,-1.0323 c 0.03934,-0.12617 -0.03935,-0.25234 -0.18363,-0.27529 -0.14428,-0.0344 -0.28856,0.0344 -0.314793,0.16058 l -0.445957,1.47964 -0.498423,0.25234 c -0.131164,-0.1147 -0.301677,-0.20646 -0.485306,-0.24087 v -0.50468 l 1.23294,-1.07818 c 0.104932,-0.0917 0.104932,-0.22941 0,-0.32117 -0.104931,-0.0917 -0.262327,-0.0917 -0.367258,0 l -0.878799,0.67673 v -0.37851 l 0.708286,-0.61938 c 0.104931,-0.0917 0.104931,-0.2294 0,-0.32117 -0.104932,-0.0917 -0.262328,-0.0917 -0.36726,0 l -0.341026,0.28676 v -0.59645 c 0,-0.12617 -0.118047,-0.2294 -0.262327,-0.2294 -0.144281,0 -0.262328,0.10325 -0.262328,0.2294 v 0.59645 l -0.341027,-0.29825 c -0.104931,-0.0917 -0.262327,-0.0917 -0.367258,0 -0.104931,0.0917 -0.104931,0.22939 0,0.32115 l 0.708285,0.61938 v 0.37852 l -0.865682,-0.75703 c -0.104931,-0.0917 -0.262328,-0.0917 -0.367259,0 -0.104932,0.0917 -0.104932,0.22941 0,0.32116 l 1.232941,1.07819 v 0.50468 c -0.18363,0.0459 -0.354143,0.12617 -0.485307,0.24088 l -0.498423,-0.25235 -0.459074,-1.45669 c -0.03934,-0.12618 -0.183629,-0.195 -0.314793,-0.16058 -0.14428,0.0344 -0.222978,0.16058 -0.183629,0.27528 l 0.314793,1.03231 -0.380375,-0.195 -0.262329,-0.84879 c -0.03934,-0.12617 -0.183629,-0.19498 -0.314793,-0.16058 -0.14428,0.0344 -0.222978,0.16058 -0.183629,0.27529 l 0.118048,0.40145 -0.590238,-0.29822 c -0.131164,-0.0689 -0.288561,-0.0229 -0.354142,0.0803 -0.0787,0.11469 -0.02624,0.25234 0.09181,0.30969 l 0.590237,0.29822 -0.459074,0.10324 c -0.14428,0.0344 -0.222978,0.16059 -0.183629,0.27528 0.02624,0.10324 0.131164,0.17206 0.249211,0.17206 0.02624,0 0.03935,0 0.06558,-0.0115 l 0.970612,-0.22941 0.380376,0.19499 -1.180475,0.27529 c -0.14428,0.0344 -0.222978,0.16058 -0.183629,0.27528 0.02624,0.10325 0.131164,0.17205 0.249211,0.17205 0.02624,0 0.03934,0 0.06558,-0.0115 l 1.692014,-0.38997 0.498423,0.25234 c -0.02624,0.11469 -0.03935,0.20646 -0.03935,0.28674 0,0.0803 0.01311,0.17205 0.03935,0.24087 l -0.498423,0.25234 -1.692014,-0.38998 c -0.14428,-0.0344 -0.28856,0.0345 -0.314793,0.16058 -0.02624,0.12617 0.03934,0.25234 0.18363,0.27528 l 1.180475,0.27528 -0.380376,0.195 -0.970612,-0.22941 c -0.144281,-0.0344 -0.288561,0.0344 -0.314793,0.16058 -0.02624,0.12617 0.03935,0.25235 0.183629,0.27529 l 0.459074,0.10324 -0.590238,0.29821 c -0.131164,0.0689 -0.170513,0.20647 -0.09181,0.3097 0.05247,0.0689 0.131163,0.1147 0.222978,0.1147 0.03934,0 0.09182,-0.0115 0.131164,-0.0344 l 0.590237,-0.29822 -0.118047,0.40145 c -0.03935,0.12618 0.03934,0.25235 0.183629,0.27528 0.02624,0 0.03934,0.0115 0.06558,0.0115 0.118047,0 0.222978,-0.0689 0.249211,-0.17205 l 0.262328,-0.84878 0.380376,-0.195 -0.314794,1.03231 c -0.03934,0.12617 0.03935,0.25234 0.183629,0.27528 0.02624,0 0.03934,0.0115 0.06558,0.0115 0.118048,0 0.222979,-0.0689 0.249211,-0.17206 l 0.445958,-1.47962 0.498423,-0.25234 c 0.131164,0.1147 0.301677,0.20646 0.485306,0.24087 v 0.50468 l -1.232941,1.07818 c -0.10493,0.0917 -0.10493,0.22941 0,0.32115 0.104932,0.0917 0.262328,0.0917 0.367259,0 l 0.865682,-0.75702 v 0.37851 l -0.708285,0.6194 c -0.104931,0.0917 -0.104931,0.22939 0,0.32115 0.104931,0.0917 0.262328,0.0917 0.367259,0 l 0.341026,-0.29822 v 0.66526 c 0,0.12617 0.118048,0.22941 0.262328,0.22941 0.14428,0 0.262328,-0.10325 0.262328,-0.22941 v -0.59644 l 0.341026,0.29823 c 0.06558,0.0459 0.131164,0.0689 0.196746,0.0689 0.06558,0 0.131164,-0.023 0.18363,-0.0689 0.104931,-0.0917 0.104931,-0.22941 0,-0.32117 l -0.708286,-0.61938 v -0.37851 l 0.865682,0.75702 c 0.05247,0.0344 0.118048,0.0573 0.183629,0.0573 0.06558,0 0.131164,-0.023 0.18363,-0.0688 0.104931,-0.0917 0.104931,-0.2294 0,-0.32116 l -1.232941,-1.07818 v -0.50468 c 0.183629,-0.0459 0.354143,-0.12617 0.485307,-0.24088 l 0.498423,0.25234 0.459073,1.46818 c 0.02624,0.10324 0.131164,0.17204 0.249212,0.17204 0.02624,0 0.03935,0 0.06558,-0.0115 0.144281,-0.0344 0.222979,-0.16058 0.18363,-0.27528 l -0.314794,-1.03231 0.380376,0.195 0.262328,0.84879 c 0.02624,0.10324 0.131164,0.17205 0.249211,0.17205 0.02624,0 0.03935,0 0.06558,-0.0115 0.14428,-0.0344 0.222978,-0.16057 0.183629,-0.27528 l -0.118047,-0.40145 0.590237,0.29822 c 0.03935,0.023 0.09182,0.0344 0.131164,0.0344 0.09181,0 0.18363,-0.0459 0.222978,-0.1147 0.0787,-0.13764 0.03934,-0.27528 -0.09181,-0.33263 z"
       inkscape:connector-curvature="0"
       style="fill:#ffffff;fill-opacity:1;stroke-width:0.12265626" />
  </g>
</svg>
