<?xml version="1.0" encoding="UTF-8" standalone="no"?>
<!-- Created with Inkscape (http://www.inkscape.org/) -->

<svg
   xmlns:dc="http://purl.org/dc/elements/1.1/"
   xmlns:cc="http://creativecommons.org/ns#"
   xmlns:rdf="http://www.w3.org/1999/02/22-rdf-syntax-ns#"
   xmlns:svg="http://www.w3.org/2000/svg"
   xmlns="http://www.w3.org/2000/svg"
   xmlns:sodipodi="http://sodipodi.sourceforge.net/DTD/sodipodi-0.dtd"
   xmlns:inkscape="http://www.inkscape.org/namespaces/inkscape"
   width="128mm"
   height="64mm"
   viewBox="0 0 128 64"
   version="1.1"
   id="svg8"
   sodipodi:docname="social nemomedusR.svg"
   inkscape:version="0.92.4 (5da689c313, 2019-01-14)"
   inkscape:export-filename="C:\Users\jackl\Desktop\nm_social.png"
   inkscape:export-xdpi="254"
   inkscape:export-ydpi="254">
  <defs
     id="defs2" />
  <sodipodi:namedview
     id="base"
     pagecolor="#ffffff"
     bordercolor="#666666"
     borderopacity="1.0"
     inkscape:pageopacity="0.0"
     inkscape:pageshadow="2"
     inkscape:zoom="2.8"
     inkscape:cx="167.57182"
     inkscape:cy="155.90427"
     inkscape:document-units="mm"
     inkscape:current-layer="layer1"
     showgrid="false"
     inkscape:window-width="2736"
     inkscape:window-height="1699"
     inkscape:window-x="-13"
     inkscape:window-y="-13"
     inkscape:window-maximized="1"
     width="91.48436mm" />
  <metadata
     id="metadata5">
    <rdf:RDF>
      <cc:Work
         rdf:about="">
        <dc:format>image/svg+xml</dc:format>
        <dc:type
           rdf:resource="http://purl.org/dc/dcmitype/StillImage" />
        <dc:title></dc:title>
      </cc:Work>
    </rdf:RDF>
  </metadata>
  <g
     inkscape:label="Layer 1"
     inkscape:groupmode="layer"
     id="layer1"
     transform="translate(-36.334785,-32.531379)">
    <flowRoot
       xml:space="preserve"
       id="flowRoot4637"
       style="font-style:normal;font-weight:normal;font-size:32px;line-height:1.25;font-family:sans-serif;letter-spacing:0px;word-spacing:0px;fill:#000000;fill-opacity:1;stroke:none"
       transform="scale(0.26458333)"><flowRegion
         id="flowRegion4639"><rect
           id="rect4641"
           width="275.71429"
           height="112.14286"
           x="-4.6428571"
           y="33.59111" /></flowRegion><flowPara
         id="flowPara4643"></flowPara></flowRoot>    <g
       id="g4741"
       transform="matrix(0.65160072,0,0,0.65160072,50.856523,31.437103)">
      <path
         transform="matrix(0.95265522,-0.01337411,0.01182133,0.95514604,2.3568449,6.1219206)"
         d="M 115.3268,71.023614 75.90382,92.934951 37.216556,69.74932 37.95227,24.652351 77.375248,2.7410129 116.06251,25.926644 Z"
         inkscape:randomized="0"
         inkscape:rounded="1.04083e-17"
         inkscape:flatsided="true"
         sodipodi:arg2="1.0635101"
         sodipodi:arg1="0.53991137"
         sodipodi:r2="39.060318"
         sodipodi:r1="45.10297"
         sodipodi:cy="47.837982"
         sodipodi:cx="76.639534"
         sodipodi:sides="6"
         id="path4712"
         style="opacity:1;fill:#364058;fill-opacity:1;stroke:#364058;stroke-width:4.81979418;stroke-linecap:round;stroke-linejoin:miter;stroke-miterlimit:4;stroke-dasharray:none;stroke-opacity:0.4682081"
         sodipodi:type="star" />
      <path
         sodipodi:nodetypes="ccccccccccccccccc"
         inkscape:connector-curvature="0"
         id="path4660"
         d="m 91.715922,40.935304 c 0.555804,-0.214777 0.732109,-0.626061 0.779577,-1.228423 0.145678,-0.960812 0.291355,-1.672468 0.437033,-1.878068 0.392557,-0.687482 0.842625,-1.179423 1.346541,-1.488282 0.823294,-0.07767 1.534496,-0.08995 2.09068,-0.01181 0.65572,0.03221 0.993821,-0.04145 1.252048,-0.141741 1.369133,0.41039 2.173362,1.322916 3.260039,1.984374 0.68371,0.692956 1.18275,1.385912 1.31111,2.078868 0.0163,0.649134 0.16014,1.170644 0.33072,1.66546 0.0903,0.291426 -0.0426,0.63536 -0.33072,1.015809 -1.04144,1.563757 -1.83585,3.045172 -2.409597,4.453033 -0.433848,0.472342 -0.694104,0.366049 -1.004,0.425222 -0.600173,-0.213124 -0.956611,-0.212979 -1.393788,-0.283482 -0.347593,0.0082 -0.491633,0.08171 -0.720516,0.129931 -0.77788,0.0036 -1.774059,-0.696245 -2.114307,-0.992187 -2.37402,-2.349865 -2.011991,-2.549977 -2.704891,-3.578963 -0.315919,-0.443971 -0.492045,-1.733771 -0.129929,-2.149741 z"
         style="fill:#ff9667;fill-opacity:1;stroke:#000000;stroke-width:0.26458332px;stroke-linecap:butt;stroke-linejoin:miter;stroke-opacity:1" />
      <path
         sodipodi:nodetypes="cccccccc"
         inkscape:connector-curvature="0"
         id="path4664"
         d="m 93.804427,39.300213 c -0.143795,-0.411861 0.06691,-0.644113 0.07517,-0.668176 0.06338,-0.09257 0.276331,-0.221999 0.442666,-0.267268 0.34353,0.01566 0.620669,0.107924 0.760048,0.359142 0.249756,0.276367 0.28755,0.483539 0.275621,0.551244 -0.0054,0.168515 -0.211589,0.30512 -0.317383,0.392554 -0.10487,0.06339 -0.398618,0.166287 -0.602283,0.18366 -0.266885,-0.0543 -0.503194,-0.332136 -0.633839,-0.551156 z"
         style="fill:#000000;fill-opacity:1;stroke:#000000;stroke-width:0.26458332px;stroke-linecap:butt;stroke-linejoin:miter;stroke-opacity:1" />
      <path
         sodipodi:nodetypes="cccccccccccc"
         inkscape:connector-curvature="0"
         id="path4668"
         d="m 66.698624,59.06635 c 1.219937,1.354415 2.643653,2.708829 3.626207,4.063244 0.74506,0.765439 1.333006,1.524592 1.523717,2.267857 0.109069,0.502498 0.25572,0.962045 0.519718,1.287481 0.274969,0.253762 -0.514487,1.26007 -0.200801,1.960751 -0.670228,-0.406461 -1.207065,-0.968543 -1.68908,-1.594586 -0.07376,0.158589 0.03397,0.274192 -0.307105,0.496094 -0.326792,0.0043 -0.599828,-0.01468 -0.980376,-0.177176 -0.6058,-0.423164 -1.514995,-1.797106 -1.972564,-2.433222 -0.205122,-0.293104 -0.181134,-0.952781 -0.271669,-1.429224 -0.0935,-0.683562 0.384109,-1.242499 0.236233,-1.665456 -0.236417,-0.856032 -0.524534,-1.664342 -0.48428,-2.775763 z"
         style="fill:#ff9667;fill-opacity:1;stroke:#000000;stroke-width:0.26458332px;stroke-linecap:butt;stroke-linejoin:miter;stroke-opacity:1" />
      <path
         sodipodi:nodetypes="ccccccccccccccccccccccc"
         inkscape:connector-curvature="0"
         id="path4670"
         d="m 67.971156,46.215811 c 0.928574,0.150326 1.892382,0.246199 2.655991,0.65147 0.72649,0.508511 1.4687,0.972483 2.104747,1.737251 1.548479,2.15356 4.228985,6.189916 4.309721,6.865488 0.497218,1.734526 2.695173,5.412689 2.589173,6.314241 -0.06786,0.448648 0.05292,0.910771 -0.215128,1.345121 -0.408894,0.913395 -1.145235,1.557128 -1.806099,2.263018 -0.70715,0.472229 -1.4143,0.581902 -2.12145,0.701583 -0.70502,0.133734 -1.252589,-0.06175 -1.787366,-0.283975 -0.539301,-0.351771 -0.775795,-0.910994 -1.085781,-1.419868 -0.224899,-0.702048 -0.357295,-1.296988 -0.283975,-1.65373 0.03749,-0.336602 0.733883,-0.706057 0.668174,-0.968854 -0.118539,-0.410558 -0.157461,-0.343414 -0.23386,-0.501129 -0.222084,-0.237342 -0.608144,0.645533 -0.885331,0.601355 -1.100016,0.03521 -1.072784,-0.400974 -1.369755,-0.701582 -1.071741,-0.9884 -1.743097,-2.172337 -2.138157,-3.491209 -0.222229,-0.791475 -0.226809,-1.324491 -0.200453,-1.820772 0.03093,-0.395222 0.163112,-0.56769 0.267271,-0.801809 -0.628132,-0.394229 -0.790741,-0.698375 -0.818515,-1.03567 -0.195845,-1.040406 -0.0962,-2.010458 0.03341,-2.973374 0.143364,-0.760298 0.391013,-1.489924 0.80181,-2.171565 0.34596,-0.572601 0.481336,-0.741275 0.400904,-1.11919 -0.111736,-0.682543 -0.578167,-1.035726 -0.885331,-1.5368 z"
         style="fill:#ff9667;fill-opacity:1;stroke:#000000;stroke-width:0.26458332px;stroke-linecap:butt;stroke-linejoin:miter;stroke-opacity:1" />
      <path
         sodipodi:nodetypes="ccccccccccccccccccsccccccccccccc"
         inkscape:connector-curvature="0"
         id="path4672"
         d="m 76.844921,41.65582 c -3.004281,-4.360966 -2.034146,-2.943853 -3.177363,-4.193172 -0.768338,-0.543404 -0.197017,-1.001967 0.09449,-1.429222 0.695401,-0.929567 1.643756,-1.764926 4.051433,-2.385975 0.526314,-0.05768 1.169061,0.117511 1.819011,0.307106 0.22144,-0.383572 0.460343,-0.365508 0.696891,-0.4016 0.947478,0.09864 2.371408,1.149229 3.543528,2.634021 2.09878,-0.185276 4.218375,-0.391366 6.165736,-0.425223 -1.635597,1.305582 -2.243472,2.78245 -2.468655,4.323101 -0.04427,1.233344 -0.106805,2.467242 0.354351,3.685271 0.950525,1.602461 1.853829,3.204922 3.76795,4.807383 0.842514,0.784368 1.838792,1.290498 3.011998,1.476471 1.544495,-0.166793 3.046044,-0.74158 4.464843,-2.102493 -0.762976,1.215281 -1.558493,2.433562 -2.716704,3.685267 -0.703695,0.874068 -1.477741,1.637584 -2.29148,2.338726 l -0.897694,0.815012 c 0.613405,1.568508 1.201508,3.150999 1.228423,5.04362 -0.384548,1.145727 -1.125969,2.854788 -1.901694,3.437221 -0.464453,0.592037 -3.883216,0.594589 -3.069779,0.214628 0.255998,-0.119578 1.746777,-2.337155 1.577035,-2.592673 -1.986059,3.191826 -3.067074,2.243471 -5.842353,1.007881 -0.693255,-0.790802 -0.944199,-1.695749 -1.157552,-2.610397 0.26477,-0.725347 0.707858,-1.325872 1.287481,-1.830822 l -1.700893,0.330729 c -0.79749,-1.053044 -1.013393,-2.175532 -0.755954,-3.354538 -0.87407,0.326791 -2.258363,1.112784 -2.622209,0.980374 -0.746529,-0.107197 -3.602025,-4.743335 -2.539529,-4.98456 2.542726,0.194921 4.76281,-0.02029 6.37835,-1.004001 0.344662,-0.305519 0.389995,-1.575543 0.460658,-2.763948 0.12992,-1.034929 -0.199067,-1.768291 -0.614211,-2.445036 -0.469058,-0.528301 -2.004016,-0.921488 -3.56715,-1.311103 -1.481106,-0.454337 -3.36331,-0.812147 -3.578963,-1.252048 z"
         style="fill:#ff9667;fill-opacity:1;stroke:#000000;stroke-width:0.26458332px;stroke-linecap:butt;stroke-linejoin:miter;stroke-opacity:1" />
      <path
         sodipodi:nodetypes="cccc"
         inkscape:connector-curvature="0"
         id="path4589"
         d="m 53.757002,49.750816 c -1.733025,1.226696 -1.885862,1.411504 -1.439027,2.016397 0.589059,0.798625 2.668812,-1.011728 1.048368,1.544565 -4.028886,2.829949 17.638989,23.652903 18.752984,21.996489"
         style="fill:none;stroke:#4e659d;stroke-width:0.419;stroke-linecap:butt;stroke-linejoin:miter;stroke-miterlimit:4;stroke-dasharray:none;stroke-opacity:1" />
      <path
         sodipodi:nodetypes="cccc"
         inkscape:connector-curvature="0"
         id="path4589-8"
         d="m 65.126057,49.184997 c 1.733025,1.226695 1.885862,1.411504 1.439028,2.016396 -0.589059,0.798626 -2.668813,-1.011727 -1.048369,1.544566 1.059894,1.730322 18.289156,17.736045 18.951632,16.737585"
         style="fill:none;stroke:#4e659d;stroke-width:0.419;stroke-linecap:butt;stroke-linejoin:miter;stroke-miterlimit:4;stroke-dasharray:none;stroke-opacity:1" />
      <path
         sodipodi:nodetypes="cssc"
         inkscape:connector-curvature="0"
         id="path4557-5"
         d="m 59.698918,51.208127 c 1.089261,2.437147 1.247329,2.163585 1.194839,2.813126 -0.07457,0.922815 -2.653617,2.053344 -2.67938,3.362724 -0.02576,1.30938 14.972855,15.041911 14.972855,15.041911"
         style="fill:none;stroke:#4e659d;stroke-width:0.419;stroke-linecap:butt;stroke-linejoin:miter;stroke-miterlimit:4;stroke-dasharray:none;stroke-opacity:1" />
      <path
         sodipodi:nodetypes="cssc"
         inkscape:connector-curvature="0"
         id="path4557"
         d="m 59.698917,51.208127 c -1.275392,2.774182 -1.246347,2.166448 -1.19484,2.813126 0.07351,0.922929 4.433049,2.950393 2.67938,3.863854 -1.339238,0.69759 14.320299,13.406852 14.320299,13.406852"
         style="fill:none;stroke:#4e659d;stroke-width:0.419;stroke-linecap:butt;stroke-linejoin:miter;stroke-miterlimit:4;stroke-dasharray:none;stroke-opacity:1" />
      <path
         sodipodi:nodetypes="cccccccccccc"
         inkscape:connector-curvature="0"
         id="path4553"
         d="m 54.781644,46.019737 c -1.441127,0.907273 -4.522611,2.476659 -4.319986,2.725475 0.04517,0.266555 4.193789,-0.708373 6.291739,-1.060436 -1.116795,0.745685 -3.249984,1.510782 -3.210448,2.23438 0.604074,0.279736 3.468751,-1.199166 5.203716,-1.801811 0.314286,1.035313 0.543537,3.019372 0.952253,3.090782 0.327098,0.123914 0.653702,-1.911337 0.991963,-2.896469 1.640302,0.395762 4.308247,1.551933 4.920906,1.187288 0.475244,-0.211194 -1.727657,-1.264781 -2.591486,-1.897171 1.723152,0.315742 5.593754,1.635806 5.169457,0.947225 -0.159713,-0.294354 -2.908802,-1.745624 -4.363202,-2.618436 -2.987475,-0.637219 -6.009048,-0.447345 -9.044912,0.08917 z"
         style="fill:#4e659d;fill-opacity:1;stroke:#f1f1f1;stroke-width:0.08287959;stroke-linecap:butt;stroke-linejoin:miter;stroke-miterlimit:4;stroke-dasharray:none;stroke-opacity:1" />
      <path
         sodipodi:nodetypes="ccccc"
         inkscape:connector-curvature="0"
         id="path4524"
         d="m 49.330322,34.703991 c 8.812606,-3.235456 13.74122,-3.442093 20.075562,0.04292 3.226744,1.576362 5.499692,8.735628 4.700081,14.992577 -9.896455,-4.74951 -18.820478,-4.446344 -28.747032,-0.347895 -1.94603,-7.964539 -0.197468,-12.461772 3.971389,-14.687602 z"
         style="fill:#4e659d;fill-opacity:1;stroke:#f8faff;stroke-width:0.33448446px;stroke-linecap:butt;stroke-linejoin:miter;stroke-opacity:1" />
      <path
         sodipodi:nodetypes="ccccc"
         inkscape:connector-curvature="0"
         id="path4524-6"
         d="m 52.945313,35.238211 c 1.610174,-0.666354 7.702841,-2.290273 12.484928,-0.58584 1.086759,0.324778 5.543467,2.773215 5.107014,3.742648 -5.936038,-3.494708 -16.222195,-2.967587 -22.266414,-0.210767 0.819362,-1.631973 4.407764,-2.795365 4.674472,-2.946041 z"
         style="fill:#ffffff;fill-opacity:1;stroke:#5a79c6;stroke-width:0.10068828px;stroke-linecap:butt;stroke-linejoin:miter;stroke-opacity:1" />
      <text
         id="text4617"
         y="44.961651"
         x="73.289581"
         style="font-style:normal;font-weight:normal;font-size:8.46666622px;line-height:1.25;font-family:sans-serif;letter-spacing:0px;word-spacing:0px;fill:#4e659e;fill-opacity:1;stroke:#ffffff;stroke-width:0.15000001;stroke-miterlimit:4;stroke-dasharray:none;stroke-opacity:1"
         xml:space="preserve"><tspan
           style="fill:#4e659e;fill-opacity:1;stroke:#ffffff;stroke-width:0.15000001;stroke-miterlimit:4;stroke-dasharray:none;stroke-opacity:1"
           y="44.961651"
           x="73.289581"
           id="tspan4615"
           sodipodi:role="line">medus </tspan></text>
      <text
         id="text4617-9"
         y="44.961651"
         x="49.223423"
         style="font-style:normal;font-weight:normal;font-size:8.46666622px;line-height:1.25;font-family:sans-serif;letter-spacing:0px;word-spacing:0px;fill:#ff9667;fill-opacity:1;stroke:#ffffff;stroke-width:0.15000001;stroke-miterlimit:4;stroke-dasharray:none;stroke-opacity:1"
         xml:space="preserve"><tspan
           style="fill:#ff9667;fill-opacity:1;stroke:#ffffff;stroke-width:0.15000001;stroke-miterlimit:4;stroke-dasharray:none;stroke-opacity:1"
           y="44.961651"
           x="49.223423"
           id="tspan4615-3"
           sodipodi:role="line">nemo</tspan></text>
      <text
         id="text4688"
         y="45.36235"
         x="102.84732"
         style="font-style:normal;font-weight:normal;font-size:8.46666622px;line-height:1.25;font-family:sans-serif;letter-spacing:0px;word-spacing:0px;fill:#4e659d;fill-opacity:1;stroke:#ffffff;stroke-width:0.15000001;stroke-miterlimit:4;stroke-dasharray:none;stroke-opacity:1"
         xml:space="preserve"><tspan
           style="fill:#4e659d;fill-opacity:1;stroke:#ffffff;stroke-width:0.15000001;stroke-miterlimit:4;stroke-dasharray:none;stroke-opacity:1"
           y="45.36235"
           x="102.84732"
           id="tspan4686"
           sodipodi:role="line">R</tspan></text>
      <text
         transform="rotate(-30.081614)"
         id="text4718"
         y="115.68343"
         x="20.757929"
         style="font-style:normal;font-weight:normal;font-size:1.71944487px;line-height:1.25;font-family:sans-serif;letter-spacing:0px;word-spacing:0px;fill:#000000;fill-opacity:1;stroke:none;stroke-width:0.05373265"
         xml:space="preserve"><tspan
           style="fill:#ffffff;fill-opacity:1;stroke:#f6f9ff;stroke-width:0.05373265;stroke-opacity:0.4682081"
           y="115.68343"
           x="20.757929"
           id="tspan4716"
           sodipodi:role="line">install_github(&quot;Jack-H-Laverick/nemomedusR&quot;)</tspan></text>
    </g>
  </g>
</svg>
